<svg xmlns="http://www.w3.org/2000/svg" width="316.021" height="66.4" viewBox="0 0 316.021 66.4"><g id="Group_6105" data-name="Group 6105" transform="translate(22698.523 20662.928)" stroke="rgba(0,0,0,0)" stroke-width="1"><path id="Path_18187" data-name="Path 18187" d="m31.766 64.241-.237-1.035a.1.1 0 0 0-.017-.038l-.793-1.055-.114-.944-.149-.914a.089.089 0 0 0-.009-.029l-.9-1.8c.148-.76.34-1.718.506-2.54l.1-.478a.107.107 0 0 0 0-.041c-.159-.695-.365-1.566-.546-2.341l-.154-.657a.1.1 0 0 0-.023-.045l-1.23-1.352.062-2.385a.1.1 0 0 0-.024-.068l-.663-.767a.1.1 0 0 0-.07-.034l-.853-.043-.736-.841a.1.1 0 0 0-.1-.03c-.6.162-1.332.368-2.007.556l-.746.211-2.479.259-1.516-.981-1.6-2.08-1.482-2.156.346-1.568a.108.108 0 0 0 0-.045l-.558-2.237c.9-1.433 2.167-3.4 3.163-4.92a.1.1 0 0 0 .015-.04l.212-1.362 1.81-2.062.545.357a.1.1 0 0 0 .071.014l.51-.09.356.187a.1.1 0 0 0 .069.009c1.669-.393 3.893-.911 5.569-1.3l.748.155-.018.838-.465.662a.1.1 0 0 0-.015.08.1.1 0 0 0 .051.065c1.219.632 2.842 1.481 4.059 2.118a.1.1 0 0 0 .064.01l.968-.174a.1.1 0 0 0 .064-.041.1.1 0 0 0 .016-.074l-.077-.427.226-.374 1.107-.077.121.23a.1.1 0 0 0 .067.051l.649.137.264.292a.09.09 0 0 0 .041.027l1.129.39a.1.1 0 0 0 .062 0l1.237-.391.915.324a.093.093 0 0 0 .071 0l.759-.319a.1.1 0 0 0 .034-.024l.353-.382a.086.086 0 0 0 .024-.049l.556-2.92a.1.1 0 0 0-.137-.11l-.264.116-.293-.094a.1.1 0 0 0-.1.027l-.326.353-.41.021-.693-.365a.1.1 0 0 0-.062-.01l-.406.065a.11.11 0 0 0-.051.025l-.262.241-.718-.356-.61-1.633a.2.2 0 0 0-.011-.02l1.3-.592a.1.1 0 0 0 0-.179l-.118-.06c.511-.119 1.1-.257 1.648-.389l.8-.189.151.229a.1.1 0 0 0 .05.04l1.094.379a.1.1 0 0 0 .051 0l1.526-.3a.1.1 0 0 0 .079-.111l-.1-.748a.1.1 0 0 0-.04-.067l-2.111-1.5.005-.011.28.058a.1.1 0 0 0 .1-.04l.352-.5a.1.1 0 0 0-.014-.131l-.226-.207h.089a.1.1 0 0 0 .064-.026l.259-.233a.1.1 0 0 0 .03-.1.1.1 0 0 0-.068-.073l-.333-.1a.107.107 0 0 0-.065 0l-.7.285a.1.1 0 0 0-.145-.043l-.547.351a.1.1 0 0 0-.044.1l.061.449a.1.1 0 0 0 .085.085l.315.046-1.042.378-.335-.426.3-.427a.1.1 0 0 0-.08-.156h-.41l-.112-.07.249-.049a.1.1 0 0 0-.019-.2h-.806a.1.1 0 0 0-.078.04l-.5.651a.092.092 0 0 0-.02.05l-.042.442-.292.175a.1.1 0 0 0-.047.064l-.361 1.662a.1.1 0 0 0 .031.1l.39.337-.443.058a.1.1 0 0 0-.056.027l-.256.249a.1.1 0 0 0-.051-.027l-1.062-.218a.1.1 0 0 0-.048 0l-.347.1a.1.1 0 0 0-.072.092v.144l-.388-.079a.1.1 0 0 0-.085.023.1.1 0 0 0-.033.083l.094 1.077a.089.089 0 0 0 .021.053l.42.526-.244-.036a.1.1 0 0 0-.083.027.1.1 0 0 0-.031.082l.073.672-.343.049-.252-.137-.23-.221.182-.457a.1.1 0 0 0-.054-.128l-.373-.158-.261-.41-.347-.637-.216-1.04a.1.1 0 0 0-.045-.064l-.585-.357-.139-.35a.1.1 0 0 0-.058-.056l-1.014-.374-.544-.873a.07.07 0 0 0-.018-.022l-.411-.367a.1.1 0 0 0-.13 0l-.4.331a.1.1 0 0 0-.035.069l-.036.539a.1.1 0 0 0 .041.088l.319.226.171.248.4.661a.1.1 0 0 0 .034.034l.452.265.313.108v.2a.1.1 0 0 0 .054.088l.588.3.449.427-.4-.269a.1.1 0 0 0-.131.019l-.183.217a.1.1 0 0 0 0 .125l.2.258-.185.424-.144.072.046-.06a.1.1 0 0 0 .012-.1l-.3-.722a.1.1 0 0 0-.042-.048l-.643-.371-.632-.465-.707-.577-.428-.7-.486-.549a.1.1 0 0 0-.073-.033h-.527a.076.076 0 0 0-.053.015l-1.109.706-.851-.294a.1.1 0 0 0-.089.013l-.523.381a.1.1 0 0 0-.041.078l-.013.629L23.394 28a.1.1 0 0 0-.031.092l.088.5-.3.515-.383.108a.106.106 0 0 0-.05.033l-.247.3h-.885a.1.1 0 0 0-.056.018l-.574.392-.233-.424a.1.1 0 0 0-.085-.051l-1.158-.023.07-.757a.1.1 0 0 0-.075-.105l-.069-.017V28.3l.18-.917a.127.127 0 0 0 0-.026l-.045-.666.194-.635a.1.1 0 0 0-.012-.082l-.115-.181.36-.123a.1.1 0 0 0 .059-.054.12.12 0 0 0 .008-.033l2.716.136a.088.088 0 0 0 .1-.067l.486-1.414a.1.1 0 0 0 0-.066l-.39-1.09a.093.093 0 0 0-.053-.058l-.919-.4v-.007a.1.1 0 0 0-.008-.086l-.094-.156.417-.075.343.13a.1.1 0 0 0 .074 0l.517-.211a.1.1 0 0 0 .058-.117l-.1-.38.1.028.128.146a.1.1 0 0 0 .088.033l.627-.086a.1.1 0 0 0 .086-.09.1.1 0 0 0-.034-.084l.4-.224a.1.1 0 0 0 .046-.059l.135-.464 1.146-.3a.1.1 0 0 0 .018-.185l-.066-.032a.1.1 0 0 0 .044-.048l.292-.679 1.042-.362a.1.1 0 0 0 .057-.051l.049-.1.556.005a.115.115 0 0 0 .05-.013l.318-.182a.1.1 0 0 0 .045-.115l-.425-1.418.374-.6.579-.307.076.656-.568.865a.1.1 0 0 0 .027.137l.63.418-.1.191a.1.1 0 0 0 .013.11.1.1 0 0 0 .106.029l.836-.269.741.518a.1.1 0 0 0 .155-.065l.029-.166a.138.138 0 0 0 0-.027l1.826-.428a.112.112 0 0 0 .024-.009l.3.08a.1.1 0 0 0 .117-.058l.091-.222.1-.026a.092.092 0 0 0 .04-.02l.152-.126a.1.1 0 0 0 .033-.053l.363-1.456.767.347a.1.1 0 0 0 .124-.037l.245-.383a.1.1 0 0 0 .016-.053v-.5a.1.1 0 0 0-.04-.08.1.1 0 0 0-.087-.015l-.111.031-.143-.137-.077-.271 1.543-.164a.1.1 0 0 0 .057-.025l.193-.176.842-.07a.1.1 0 0 0 .037-.187l-.652-.329.026-.1a.1.1 0 0 0-.023-.093.1.1 0 0 0-.092-.03l-2.28.437-.576-.64-.216-.977 1.487-1.612a.1.1 0 0 0 .025-.078.1.1 0 0 0-.043-.071l-.672-.447a.1.1 0 0 0-.092-.01l-.73.288a.1.1 0 0 0-.061.079l-.08.594-1.074.932a.093.093 0 0 0-.03.047l-.443 1.514a.1.1 0 0 0 .039.109l.636.451-.842 1.069a.107.107 0 0 0-.021.049l-.123.916-.733.406a.1.1 0 0 0-.04.041l-.143.27-.217.086-.227-.134c-.217-.575-.479-1.286-.718-1.934l-.261-.707a.1.1 0 0 0-.162-.036l-.985.967-1-.336-.328-1.144.452-.9.809-.464.659-.538 1.021-1.1.777-.644a.079.079 0 0 0 .021-.022l.229-.362c.373-.382.833-.874 1.238-1.308l.435-.464 1.4-.5a.106.106 0 0 0 .041-.028l.374-.419.35-.06-.233.518a.1.1 0 0 0 .168.1l.336-.418.055.148a.1.1 0 0 0 .084.065.1.1 0 0 0 .094-.049l.19-.322h.146l-.063.15a.1.1 0 0 0 .029.116.1.1 0 0 0 .119 0l.232-.159.525.188-.066.1-.465-.055a.1.1 0 0 0-.1.064.1.1 0 0 0 .036.116l.376.266a.1.1 0 0 0 .068.017l.761-.085h.006a.105.105 0 0 0-.02.046.1.1 0 0 0 .059.106C37.7 9 39.051 9.571 40.075 10l.065.432-.14.217-1.961-.408-.75-.156a.1.1 0 0 0-.087.17l.856.794.4.951a.1.1 0 0 0 .059.055l1.029.35a.1.1 0 0 0 .121-.138l-.165-.347a.106.106 0 0 0-.031-.038l-.217-.157.31-.039.824.274a.1.1 0 0 0 .117-.144l-.312-.535.686-.545.6.173a.105.105 0 0 0 .093-.021.1.1 0 0 0 .028-.088l-.066-.451a.1.1 0 0 0-.027-.056L41.222 10l-.055-.522a.1.1 0 0 0-.031-.062l-.109-.1.374.049.362.3-.265.052a.1.1 0 0 0-.06.158l.35.46a.1.1 0 0 0 .073.039l.483.031h.006a.1.1 0 0 0 .1-.088l.036-.324c.286-.175.625-.392.941-.6.136-.087.267-.173.39-.25l.452.339a.1.1 0 0 0 .133-.013l.235-.261.842-.077v.11a.1.1 0 0 0 .047.084.1.1 0 0 0 .1 0l.331-.164a.1.1 0 0 0 .053-.065.1.1 0 0 0-.016-.081l-.222-.311c.412.077.882.167 1.317.251l.535.1.729.455a.1.1 0 0 0 .14-.13l-.293-.54a.1.1 0 0 0-.036-.038l-.764-.463-.2-.51a.1.1 0 0 0-.039-.046l-.409-.26.133-.406a.1.1 0 0 0 0-.068l-.208-.514.718.024.292.634a.107.107 0 0 0 .02.03l.511.5L49 9.012a.089.089 0 0 0 .022.023l.491.413.131.515-.227.347-.392-.053a.1.1 0 0 0-.11.076.1.1 0 0 0 .065.117l.987.334a.1.1 0 0 0 .079-.006.1.1 0 0 0 .049-.061l.22-.8a.1.1 0 0 0-.007-.071l-.366-.746.121-.043.568.452a.1.1 0 0 0 .136-.143l-.474-.538a.106.106 0 0 0-.07-.033l-.784-.04-.391-.488-.265-.567a.149.149 0 0 0-.022-.031l-.525-.492.106-.231.362.465a.09.09 0 0 0 .056.036l.929.211A.1.1 0 0 0 49.8 7.6a.1.1 0 0 0-.057-.122l-.8-.329-.039-.227 1.186.274a.1.1 0 0 0 .111-.049.1.1 0 0 0-.02-.12l-.436-.411a.1.1 0 0 0-.048-.026l-.321-.068-.557-.554.533-.1.334-.061a.1.1 0 0 0 .063-.156l-.491-.681a3.638 3.638 0 0 0 .857-.923.1.1 0 0 0-.008-.129l-.34-.35-.034-.085.229.058-.006.077a.1.1 0 0 0 .076.1l.472.112.226.281a.1.1 0 0 0 .064.036l.23.031A.1.1 0 0 0 51.1 4l-.058-.047.05.01 1.03.62.3.274a14.186 14.186 0 0 1 .749 1.511.1.1 0 0 0 .1.059.1.1 0 0 0 .089-.068l.141-.427.736.076h.02l.085.13a.093.093 0 0 0 .031.031l.379.229a.1.1 0 0 0 .129-.022l.108-.132a.1.1 0 0 0 0-.119l.219.173 1.248 1.16.418.34a.1.1 0 0 0 .134-.008l.153.153a38.263 38.263 0 0 1 6.594 8.833l.715 1.48.22.4.19.4a.108.108 0 0 0 .026.034c.378.827.731 1.679 1.049 2.534.437 1.283.895 2.95 1.158 3.953a.1.1 0 0 0-.055.105c.087.544.149 1.238.2 1.851l.037.4-.146-.3a.1.1 0 0 0-.1-.055.1.1 0 0 0-.084.081l-.006.034-.02-.271a.1.1 0 0 0-.034-.068l-.162-.139a.094.094 0 0 0-.1-.018.1.1 0 0 0-.065.076l-.192 1.173a.106.106 0 0 0 0 .05l.238.637a.1.1 0 0 0 .05.055l.409.192-.2 1.377a.1.1 0 0 0 0 .037l.38 1.635a.1.1 0 0 0-.148.116l.241.674-.13.474a.1.1 0 0 0 .018.086l.174.225c-.16 1.049-.443 2.383-.727 3.673-.193.249-.447.531-.692.8l-.31.346-.349-.12a.1.1 0 0 0-.12.047l-.45.829a.086.086 0 0 0-.01.025l-.143.618a.138.138 0 0 0 0 .033c.065.551.106 1.219.146 1.867.017.277.033.544.051.787l-.256 1.191-.858 1.2.056-.263a.1.1 0 0 0 0-.055l-.494-1.337.086-.356a.1.1 0 0 0-.188-.061L62.7 44.3l.021-.1a.1.1 0 0 0-.18-.075l.1-.85.194-1.459-.017-.713a.1.1 0 0 0-.186-.046l-.328.6-.142.088-.042-.253.143-.706a.146.146 0 0 0 0-.04l-.528-2.646a.1.1 0 0 0-.171-.046l-.391.437-.86.207a.1.1 0 0 0-.075.086l-.045.4c-.537.709-1.271 1.607-1.861 2.331l-.274.337a.082.082 0 0 0-.019.039l-.509 2.053-.451.988-.241.608-.38.3-.375-1.518-.424-2.594c.1-.744.185-1.683.264-2.511.03-.312.058-.613.086-.889a.1.1 0 0 0-.185-.059l-.382.667-.241.132-.474-.683.454-.275a.1.1 0 0 0-.063-.184l-.247.03-.634-.517-.284-.838a.1.1 0 0 0-.088-.068c-.74-.037-1.679-.082-2.5-.121l-.526-.024-1.093-.755a.09.09 0 0 0-.059-.017l-.849.024-1.583-1.97a.1.1 0 0 0-.122-.026l-.814.406a.1.1 0 0 0-.047.128l1.19 2.758a.1.1 0 0 0 .189-.024l.013-.084.059.56a.1.1 0 0 0 .038.068.1.1 0 0 0 .076.02l1.217-.183a.1.1 0 0 0 .065-.04l.7-.955.126.878a.092.092 0 0 0 .04.066l.735.53.289.9-.45.645v-.014a.1.1 0 0 0-.094-.077.1.1 0 0 0-.1.073l-.217.77-.945.726a.1.1 0 0 0-.028.033l-.255.5-.283-.034a.09.09 0 0 0-.056.009l-.485.239a.091.091 0 0 0-.034.027l-.413.517c-.806.378-1.836.85-2.713 1.251l-.43.2-.409-.305c-1.148-3.005-2.372-5.687-3.555-8.28l.1-.833a.1.1 0 0 0-.078-.109.1.1 0 0 0-.115.068l-.244.816-.673-1.1a.1.1 0 0 0-.177.085c.869 2.425.992 2.8 2.164 6.43l.01.032a.092.092 0 0 0 .022.036l.481.528.409 1.444a.1.1 0 0 0 .053.063l.51.244 1.38 2.276a.1.1 0 0 0 .106.045c.6-.135 1.346-.306 2.026-.463l.57-.131-.763 1.8-1.05 2.021-1.728 1.219a.093.093 0 0 0-.023.022c-.637.861-1.532 2.053-2.661 3.542a.1.1 0 0 0-.02.061c.018 1.092 0 2.6-.017 3.515-.833.8-1.937 1.85-2.767 2.641a.1.1 0 0 0-.03.088l.124.688-.277.778-.712.307a.1.1 0 0 0-.05.049l-.577 1.21-1.9 1.666-.343.3-2.008.5Zm21.515.47.512-.391.923-.922 1.167-1.333c.446-.457.959-1.031 1.454-1.588.086-.1.172-.194.256-.286a.107.107 0 0 0 .1-.024l.652-.626 1-.632c.581-.593 1.3-1.4 1.882-2.049a.1.1 0 0 0 .051.086.1.1 0 0 0 .087 0l-.6.857a38.508 38.508 0 0 1-3.6 4.153q-.863.863-1.785 1.674a.1.1 0 0 0-.026-.042.1.1 0 0 0-.123-.013l-.954.608-.3.238c-.205.095-.462.2-.7.3ZM40.855 61.04l.3-1.394.568-.707a.1.1 0 0 0 .021-.053l.071-.808.338-.591.756-.269a.107.107 0 0 0 .039-.025l1.111-1.162.23.1-.243.914a.1.1 0 0 0-.078-.039.083.083 0 0 0-.087.052 176.989 176.989 0 0 1-2.263 3.973l-.464.158Zm21.622-6.962h.014l-.015.01Zm-.941-.244a.1.1 0 0 0-.068-.036h-.009a.1.1 0 0 0-.066.024l-.014.012-.424-.36.031-.05A.1.1 0 0 0 61 53.39l.056-.339.076-.063c.145.071.31.16.469.247l.179.1-.047.3-.1.323Zm-.514-1.23a.1.1 0 0 0-.068-.052A21.07 21.07 0 0 0 61.1 47.5l.161.07c.2.728.386 1.712.526 2.436l-.174.338a.1.1 0 0 0 0 .08l.059.155-.262.756a.094.094 0 0 0 0 .057l.078.317-.457.91Zm1.957-.976a.1.1 0 0 0-.076-.036h-.016l-.2.032.07-.177a.1.1 0 0 0-.012-.094.1.1 0 0 0-.084-.041h-.084l.262-.764a.1.1 0 0 0-.04-.116l.051-.176.089-.158a.178.178 0 0 0 .011-.028l.05-.264.217-.508.048-.049.074.211a.1.1 0 0 0 .093.067.094.094 0 0 0 .094-.064l.194-.52c.372-.508.806-1.165 1.191-1.745l.164-.247.005.508-.131.1a.1.1 0 0 0-.037.063l-.034.233-.2.2a.1.1 0 0 0-.025.043l-.2.726-.1.241a.1.1 0 0 0-.007.029l-.023.238c-.265.54-.616 1.175-.953 1.789l-.284.517a.1.1 0 0 0-.054.025L63 51.7a.1.1 0 0 0-.022-.071Zm.893-.388a.108.108 0 0 0-.041-.008.075.075 0 0 0-.031.005l.248-.51.1-.177a.1.1 0 0 0 .045.085.1.1 0 0 0 .022.011l-.232.257a.121.121 0 0 0-.022.039l-.085.3Zm.69-1.453.094-.174.068.054-.088.123Zm-2.478-.951.145-.734.131-.757-.06-1.034.044-.219v.359l.2 1.188-.359 1.461ZM57.2 46.218l.155-.548.058-.083a.1.1 0 0 0 .014-.028l.054-.181.015.88-.293.214-.032.015Zm8.914.032a.105.105 0 0 0 0-.05.1.1 0 0 0 .052-.042l.039-.067-.077.254a.1.1 0 0 0-.041.027Zm-.725-6.112.232-.215-.122.367-.107.163ZM39.7 30.65l.459-.127-.1.206Zm-4.426-.13.021-.047.227.078Zm32.388-.811.067.3.018.359Zm-37.634-.787 1.067-.031.018.061-.124.492-.327.094Zm37.4-.111-.039-.335.089.4Zm-39.58-.879a.1.1 0 0 0-.022-.073l-.075-.094.111-.228a.1.1 0 0 0 0-.093l-.1-.181.5.1-.083.608-.2.2-.154.037Zm.05-1.584.134-.11L28 26.5Zm-5.888-5.416.652-.19a.1.1 0 0 0 .052-.038l.228-.319a.1.1 0 0 0 0-.117.1.1 0 0 0-.111-.035l-.413.139-.132-.05a.1.1 0 0 0 0-.043.1.1 0 0 0-.087-.072l-.305-.025.333-.136a.1.1 0 0 0 .059-.072l.092-.436a.1.1 0 0 0-.027-.09.1.1 0 0 0-.089-.028l-.143.027.029-.1.121.059a.1.1 0 0 0 .047.01l.427-.019.151-.044a.1.1 0 0 0 .068-.093l.014-1.089a.1.1 0 0 0-.032-.075.1.1 0 0 0-.076-.025l-.681.069.133-.74a.1.1 0 0 0-.06-.109l-.1-.041.075-.173a.1.1 0 0 0 0-.087l-.033-.06a.1.1 0 0 0-.06-.048.1.1 0 0 0-.076.01l-.239.14.259-.3a.1.1 0 0 0 .02-.093l-.012-.042.014-.075a.1.1 0 0 0 0-.04l-.022-.093.149.013a.1.1 0 0 0 .1-.051.1.1 0 0 0-.01-.109l-.092-.117.079-.017a.108.108 0 0 0 .046-.022l.122-.1.4-.062-.25.254h-.094a.091.091 0 0 0-.1.083.1.1 0 0 0 .068.112l.036.012-.06.062a.1.1 0 0 0-.028.072.107.107 0 0 0 .032.071l.037.032a.1.1 0 0 0 .075.024l.795-.073-.355.724-.283.111a.1.1 0 0 0-.06.068.1.1 0 0 0 .021.088l1.131 1.33a.107.107 0 0 0-.082.037.1.1 0 0 0-.01.112l.293.519a.1.1 0 0 0 .059.047l.554.163-.5.6a.1.1 0 0 0 .008.134l.178.171-.6.14-.317-.122a.1.1 0 0 0-.063 0l-1.553.447Zm-2.216-.8-.188-.05.005-.036.691-.292a.1.1 0 0 0-.049-.189l-.227.023.243-.232a.1.1 0 0 0 .029-.094.1.1 0 0 0-.066-.073l-.353-.116.22-.39.244.041a.093.093 0 0 0 .057-.007l.346-.157a.1.1 0 0 0 .059-.094.1.1 0 0 0-.063-.09l-.065-.024.394-.2a.1.1 0 0 0 .078.023l.341-.049.156.215-.388.472a.1.1 0 0 0-.021.081l.1.533-.152.369-1.328.387a.1.1 0 0 0-.062-.05Zm9.281-2.472.051-.118.214-.013.266.373-.156.257Zm4.807-1.677.227-.005-.184.128ZM9.049 14.228c.068-1 .231-2.408.419-3.625l.806-1.179.761-.339a.092.092 0 0 0 .04-.032l.394-.538a.1.1 0 0 0 0-.116.1.1 0 0 0-.111-.037l-.612.2-.152-.09.392-.562A.1.1 0 0 0 11 7.878l.186-.571.837-1.078a.069.069 0 0 0 .013-.023c.155-.37.392-.821.6-1.218.09-.172.176-.337.253-.488a.1.1 0 0 0 0-.094.1.1 0 0 0-.078-.05c-.364-.028-.835-.068-1.222-.1.127-.276.3-.589.463-.869l.156-.277.37-.254c.372-.117.833-.258 1.249-.384l.4-.121a.1.1 0 0 0 .024-.011l.64-.407a.1.1 0 0 0 .033-.132l-.049-.086c.585-.226 1.384-.526 2.437-.917.713.047.922.059 2.027.122a.091.091 0 0 0 .1-.067l.155-.458.9-.3.56.109a.1.1 0 0 0 .06-.004l.4-.2c.855.179 1.182.241 2.013.389L23.141.5a.1.1 0 0 0 .005.2l.183.043-.329.343a.1.1 0 0 0 .1.163l.687-.229.292.058a.093.093 0 0 0 .067-.011l.313-.177L25 .826l.247.126-1.074.378a.1.1 0 0 0-.06.058.1.1 0 0 0 .006.084l.022.039-1.205.7a.087.087 0 0 0-.02.016l-.6.6a.1.1 0 0 0-.022.109l.165.4-.886.6A.1.1 0 0 0 21.53 4a.1.1 0 0 0 .024.078l.248.277-.232.934-1.6 1.658a.1.1 0 0 0-.03.053l-.126.638-.327.518a283.19 283.19 0 0 0-6.413 2.889.094.094 0 0 0-.038.03c-.982 1.3-2.185 2.985-2.7 3.714Zm-4.874-.958.008-.175a.1.1 0 0 0-.046-.088L4 12.919l.014-.014a.1.1 0 0 0 0-.13l-.079-.1.161-.1a.1.1 0 0 0 .046-.108l-.165-.711a.1.1 0 0 0-.077-.075.1.1 0 0 0-.1.039l-.106.145-.385.055.056-.176.206-.2H5.47l-.06.136a.1.1 0 0 0 .12.135l.078-.023-.052.427-.095.189h-.008a.1.1 0 0 0-.116.054l-.167.371a.089.089 0 0 0-.049 0 .107.107 0 0 0-.034.02l-.14-.493a.1.1 0 0 0-.091-.071.091.091 0 0 0-.1.061l-.01.026-.022-.031a.1.1 0 0 0-.1-.041.1.1 0 0 0-.079.072l-.108.407a.092.092 0 0 0 .006.068l.19.408-.1.218Zm-2.525-.946a.071.071 0 0 0-.02-.017l.158-.152.17-.266.293-.334h.179l-.171.491a.1.1 0 0 0-.149-.021l-.442.39a.1.1 0 0 0-.017-.091Zm.631.009.039.038-.038.026Zm16.177-.317-.074-.142a.1.1 0 0 0-.1-.053l-.358.048.194-.173a.1.1 0 0 0-.006-.154.1.1 0 0 0 0-.04l-.028-.154a.1.1 0 0 0-.057-.073l.191-.025a.1.1 0 0 0 .083-.075l.02-.082a.1.1 0 0 0-.015-.081v-.006l.029-.014.01-.005.026.1a.1.1 0 0 0 .177.033l.364-.51.164.169a.088.088 0 0 0 .076.031.1.1 0 0 0 .073-.038l.156-.194.14.186a.1.1 0 0 0 .1.037.1.1 0 0 0 .073-.081l.031-.2 1.283.367.013.2-.743.482-1.1.476Zm-14.882-.462.164-.154.706-.077a.1.1 0 0 0 .086-.077l.068-.308 1-.84a.1.1 0 0 0 .026-.035l.233-.512a.093.093 0 0 0 .008-.051l-.03-.5a.091.091 0 0 0-.01-.038l.125-.1a.1.1 0 0 0 .037-.086l-.023-.328.173-.227a.1.1 0 0 0 .012-.1l-.082-.2a.1.1 0 0 0-.09-.061.09.09 0 0 0-.092.058l-.1.22-.3-.088a.1.1 0 0 0-.12.058l-.036.087a.1.1 0 0 0-.056.018l-.086.062-.331-.284.179-.316.136.043a.1.1 0 0 0 .096-.018.1.1 0 0 0 .034-.09l-.033-.227.36-.39L6.962 5.96h.023a.1.1 0 0 0-.023.124.1.1 0 0 0 .118.045L7.464 6l-.174.244-.409.4a.1.1 0 0 0-.031.072v.066a.1.1 0 0 0 .118.1l.2-.04a.105.105 0 0 0 .035-.014l.338-.228.1-.026c0 .183.023.386.041.571l.02.224-.379.237a.1.1 0 0 0 .088.177l.23-.089.125.178-.377.2a.1.1 0 0 0-.053.076l-.021.179a.1.1 0 0 0 .047.1l-.045.015a.1.1 0 0 0-.066.079l-.026.167-.161.24-.164.025a.1.1 0 0 0-.069.052.1.1 0 0 0 0 .087 7.618 7.618 0 0 0 .369.67l.128.218-.2.185a.1.1 0 0 0-.024.11.1.1 0 0 0 .1.062l.213-.008-.159.32h-.193a.1.1 0 0 0-.082.158l.009.011-.338.075a.1.1 0 0 0-.063.045l-.245.4-.033-.238.335-.274a.1.1 0 0 0 .022-.129.1.1 0 0 0-.123-.04l-.177.076v-.172a.1.1 0 0 0-.114-.1l-.2.032a.1.1 0 0 0-.073.053l-.149.3-.076-.019a.1.1 0 0 0-.114.053l-.146.311a.1.1 0 0 0 .055.135l.019.007-.1.221Zm-3.576 0c.25-.31.515-.632.784-.955a.113.113 0 0 0 .018.018.1.1 0 0 0 .137-.017l.782-.927.2-.184.068.266a.1.1 0 0 0 .068.07.113.113 0 0 0 .046 0l-.035.039a.087.087 0 0 0-.018.029l-.112.264a.1.1 0 0 0 .164.105l.6-.664.374-.3.27-.306a.1.1 0 0 0 .023-.053l.21-.173h.005l-.463.634a.1.1 0 0 0 .149.13l.148-.141-.266.547a.1.1 0 0 0 .031.123.1.1 0 0 0 .128-.008l1.052-1 .337-.47.124-.063.053.215-.324.367-.194.054A.1.1 0 0 0 4.3 9.2l-.633.993-.324.223v-.027a.1.1 0 0 0-.071-.1.1.1 0 0 0-.114.046l-.1.176a.1.1 0 0 0-.14-.078l-.263.12a.1.1 0 0 0-.057.079l-.014.13-.362.345-.284-.238a.1.1 0 0 0-.157.107l.157.47-.1.109Zm2.255 0 .073-.084.106.084Zm15.6-.776a.1.1 0 0 0 .036-.068l.013-.17.318-.071.167.122-.072.05a.1.1 0 0 0-.039.106l.015.062ZM2.875 8.993a.1.1 0 0 0 .013-.05l.14-.1-.051.1-.1.072a.094.094 0 0 0-.002-.022Zm39.495-.239.136.062-.109.07ZM3.617 8.71l.068-.346.615-.672.225-.16-.371.538-.414.3a.1.1 0 0 0-.021.142l.062.077-.128.093a.123.123 0 0 0-.022.022l-.025.035a.111.111 0 0 0 .011-.029ZM2.7 8.543a.1.1 0 0 0-.076-.034h-.009l.218-.234.276-.225a.184.184 0 0 0 .021-.024l.077-.126c.158-.157.316-.312.476-.465l.089-.085.007-.008.247-.242.017.02-.384.38a.082.082 0 0 0-.017.022l-.3.526-.366.338a.1.1 0 0 0-.136.014l-.135.149Zm4.973-.261-.01.04-.1.031Zm35.047-.971-.338-.4.1-.208a.1.1 0 0 0 .006-.067l-.074-.307.137-.246a.1.1 0 0 0 0-.1l-.176-.319c.171-.314.35-.711.508-1.063l.094-.21c.423-.1.952-.226 1.4-.335l-.177.4-.783.61a.1.1 0 0 0-.032.045l-.214.61a.076.076 0 0 0-.006.037l.047 1.076a.1.1 0 0 0 .034.07l.863.762h-.588ZM5.036 6.566l.017-.014a.1.1 0 0 0 .1-.013l.083-.066a.091.091 0 0 0-.008.049l-.419.329Zm2.621-.4.362-.329.042.038-.159.4-.373.055Zm-1.475-.193.467-.254-.783.6h-.044Zm2.259-.9a.1.1 0 0 0-.013-.134.1.1 0 0 0-.067-.024.1.1 0 0 0-.068.027l-.2.192-.259-.034h-.008a.1.1 0 0 0-.135-.144l-.064.052v-.009l.67-.583-.123.184a.1.1 0 0 0 .124.145l.071-.032.022.04a.1.1 0 0 0 .081.051.1.1 0 0 0 .085-.041L8.6 4.71l.252-.1.148.14-.16.091a.1.1 0 0 0-.05.091v.041l-.28.166-.123.01Zm23.012-.562h.294a.1.1 0 0 0 .1-.076l.058-.25a.1.1 0 0 0-.073-.118l-.382-.095.5-.237a.1.1 0 0 0-.026-.187l-.438-.077a.089.089 0 0 0-.038 0l-.564.117-.013-.3a.1.1 0 0 0-.045-.079l-.362-.239.037-.238.314-.046a.1.1 0 0 0 .041.1.411.411 0 0 0 .223.1.1.1 0 0 0 .092-.047l.031-.052.082.468a.1.1 0 0 0 .086.081l.383.049a.1.1 0 0 0 .107-.127l-.16-.526.24-.064.531.573a.12.12 0 0 0 .027.021l.347.183-.244.011a.1.1 0 0 0-.082.051 7.089 7.089 0 0 0-.6 1.389Zm2.192-.142a.1.1 0 0 0-.092-.062h-.021l-.3.064.033-.162a.1.1 0 0 0-.01-.064l-.033-.067L33.54 4l.185.226a.1.1 0 0 0 .045.031l.034.013-.016.219-.076.047Zm-26.089.067.006.009-.03.023a.088.088 0 0 0 .024-.032Zm.9-.353.333-.245.023.068-.112.113a.092.092 0 0 0-.028.062v.018l-.2.093Zm1.5-.113a.1.1 0 0 0-.088-.07l-.581-.034.655-.305a.093.093 0 0 0 .033-.026l.014-.016.011.012a.1.1 0 0 0 .127.024l.2-.116.867-.616a.1.1 0 0 0 .035-.045l.219-.028a.089.089 0 0 0 .051-.023l1.031-.859-.117.132a.1.1 0 0 0 .142.138l.414-.381.967-.266a.1.1 0 0 0 .059-.048l.033-.057.562-.259a.1.1 0 0 0-.076-.184l-.9.323a.1.1 0 0 0 .008-.046l.121-.039A.1.1 0 0 0 13.748 1a.1.1 0 0 0 .023-.07l.647-.172a.119.119 0 0 0 .041-.023l.075-.069.088-.006h.009l-.008.018c-.023.04-.038.082-.056.122a.1.1 0 0 0 .033.12.1.1 0 0 0 .128-.01l.347-.348.473-.194.125-.013.027-.006.04-.017-.007.024a.1.1 0 0 0 .156.106l.254-.2-.006.005a.1.1 0 0 0-.006.133.1.1 0 0 0 .13.021l.259-.163h.16l-.053.02a.1.1 0 0 0-.066.1.1.1 0 0 0 .08.09c.067.014.143.029.22.043l-.927.239-.263.07a.1.1 0 0 0-.071.13l-.568.164a.1.1 0 0 0-.068.121.094.094 0 0 0 .036.051l-.74.282-.315.121a.1.1 0 0 0-.063.105v.01l-.307.145-.068-.031a.1.1 0 0 0-.1.012l-.189.149-.624.127a.1.1 0 0 0-.064.045.1.1 0 0 0-.012.078l.012.045h-.13a.1.1 0 0 0-.1.076l-.038.156-.222.036a.1.1 0 0 0-.076.058l-.048.109-.433.219L11.44 3a.1.1 0 0 0-.113 0l-.338.265-.577.349a.1.1 0 0 0-.014.159l-.127.112-.075.036a.1.1 0 0 0-.1 0l-.131.081a.084.084 0 0 0-.009-.032Zm23.034-.392v-.011l.1.173-.176.038Zm.044-.872a.028.028 0 0 0-.01-.008.1.1 0 0 0 .024-.083.1.1 0 0 0-.041-.066.153.153 0 0 0 .02-.013l.329-.269.452.13.069.408a.592.592 0 0 1-.037.092l-.008.017a5.577 5.577 0 0 1-.4.079 2.989 2.989 0 0 1-.397-.288Zm15.224-.231h.03l.682.37v.012l-.084-.031a.1.1 0 0 0-.091.011l-.1.068ZM32.8 2.786l.075-.024-.025.054Zm-22.067-.2.2-.074-.165.091a.11.11 0 0 0-.035-.017Zm21.641-.075-.029-.042.126.017a.1.1 0 0 0 .094-.04.1.1 0 0 0 .009-.1l-.005-.012.32.194Zm15.068-.159-.678-.341A.1.1 0 0 0 46.728 2l-.3-.024-.317-.154-.26-.222.007-.028a.1.1 0 0 0-.031-.1l-.214-.186.542.232.306.249a.107.107 0 0 0 .03.017l.325.113.194.191a.1.1 0 0 0 .109.02l.1-.041.44.3Zm-36.1-.023a.142.142 0 0 0 .027-.034.1.1 0 0 0 0-.085l-.027-.058.09-.04a.113.113 0 0 0 .032-.022l.136-.142a.1.1 0 0 0 .11 0l.087-.065.138-.066a.1.1 0 0 0 .056-.1l.348-.147-.059.039a.068.068 0 0 0-.019.017l-.088.1a.086.086 0 0 0-.021.036l-.453.308a.1.1 0 0 0-.043.08.1.1 0 0 0 .031.075l-.334.114a.038.038 0 0 0-.008-.011ZM38.1 1.622l.06-.094a.1.1 0 0 0 .015-.054l.2-.035.059.016-.154.051a.1.1 0 0 0-.066.072.1.1 0 0 0 .007.063Zm2.4-.135-.126-.08.057-.046.237.131-.032.026Zm-28-.041.028-.011-.04.032Zm26.935-.093.017-.012.229.05-.022.014Zm-.049-.3L39.4 1l.132.067Z" transform="translate(-22450.748 -20662.398)" fill="#ba000a"/><path id="Path_18186" data-name="Path 18186" d="M16.727 7.5a3.8 3.8 0 0 1-1.483-1.436 3.992 3.992 0 0 1-.538-2.054 3.989 3.989 0 0 1 .538-2.054A3.792 3.792 0 0 1 16.727.518a4.59 4.59 0 0 1 4.238 0 3.8 3.8 0 0 1 1.483 1.43 3.981 3.981 0 0 1 .538 2.059 3.981 3.981 0 0 1-.538 2.059A3.8 3.8 0 0 1 20.965 7.5a4.59 4.59 0 0 1-4.238 0Zm.735-5.877a2.529 2.529 0 0 0-.962.977 2.841 2.841 0 0 0-.35 1.408 2.841 2.841 0 0 0 .35 1.409 2.529 2.529 0 0 0 .967.979 2.9 2.9 0 0 0 2.767 0 2.529 2.529 0 0 0 .968-.979 2.841 2.841 0 0 0 .35-1.409A2.841 2.841 0 0 0 21.2 2.6a2.529 2.529 0 0 0-.968-.979 2.9 2.9 0 0 0-2.767 0ZM71.321 7.9V.112h1.427V7.9Zm16.968 0V.111H93.9v1.213h-4.184V3.35h3.713v1.191h-3.713V6.69h4.339V7.9Zm-11.269 0V.111h3.361a4.765 4.765 0 0 1 2.185.484 3.548 3.548 0 0 1 1.482 1.369 3.914 3.914 0 0 1 .527 2.043 3.909 3.909 0 0 1-.527 2.043 3.542 3.542 0 0 1-1.482 1.369 4.765 4.765 0 0 1-2.185.484Zm1.427-1.224h1.868A3.229 3.229 0 0 0 81.8 6.35a2.335 2.335 0 0 0 .988-.935 2.789 2.789 0 0 0 .347-1.409 2.785 2.785 0 0 0-.344-1.406 2.324 2.324 0 0 0-.988-.935 3.229 3.229 0 0 0-1.488-.329h-1.867ZM63.9 7.9 62 2.137 60.063 7.9h-1.526L55.989.111h1.482l1.911 5.922L61.37.111h1.318l1.944 5.955L66.6.111h1.36L65.412 7.9Zm-18.2 0V.111h3.36a4.765 4.765 0 0 1 2.185.484 3.553 3.553 0 0 1 1.482 1.369 3.914 3.914 0 0 1 .527 2.043 3.909 3.909 0 0 1-.527 2.043 3.548 3.548 0 0 1-1.482 1.369 4.765 4.765 0 0 1-2.185.481Zm1.427-1.224h1.867a3.23 3.23 0 0 0 1.489-.329 2.335 2.335 0 0 0 .988-.935 2.8 2.8 0 0 0 .347-1.409A2.794 2.794 0 0 0 51.47 2.6a2.324 2.324 0 0 0-.988-.935 3.23 3.23 0 0 0-1.489-.329h-1.866ZM36.923 7.9V.111h1.427v6.568h4.02V7.9Zm-5.194 0-1.571-2.279a2.666 2.666 0 0 1-.3.012h-1.731V7.9H26.7V.111h3.163A4.218 4.218 0 0 1 31.6.445a2.536 2.536 0 0 1 1.136.958 2.705 2.705 0 0 1 .4 1.48 2.668 2.668 0 0 1-.425 1.517 2.515 2.515 0 0 1-1.214.946l1.77 2.554Zm-3.6-3.461H29.8a2.149 2.149 0 0 0 1.416-.407 1.423 1.423 0 0 0 .484-1.149 1.405 1.405 0 0 0-.484-1.147 2.169 2.169 0 0 0-1.416-.4h-1.67ZM7.908 7.9l-1.9-5.766L4.075 7.9H2.549L0 .111h1.483l1.911 5.922L5.382.111H6.7l1.944 5.955L10.609.111h1.362L9.423 7.9Z" transform="translate(-22524.264 -20606.68)" fill="#1e1d1d"/><path id="Path_18185" data-name="Path 18185" d="M108.41 44.228h-2.689l-7.867-15.153c-.643.046-1.266.071-1.844.071h-8.458v-7.189h8.722c4.922-.106 10.02-2.2 10.02-7.381 0-5.258-5.874-7.356-10.759-7.356h-7.983V.013h8.8c10.233 0 19.865 4.7 19.865 14.624a13.589 13.589 0 0 1-9.71 13.156l8.536 16.435Zm49.64 0h-2.69l-7.94-15.295h-9.891l-.009-6.738h6.4l-6.289-12.105-9.788 18.843h-9.462L133.541.037h8.2l22.938 44.19Zm86.288-15.294c4.4-11-25.86-.212-25.86-16.3C218.479 4.015 228.259 0 238.112 0c5.57 0 11.135 1.238 15.276 4.307l-6.924 5.727c-2.029-2.242-5.643-3.3-9.327-3.3-4.363 0-8.726 1.527-8.726 5.363 0 8.065 25.161-1.779 25.161 16.833Zm-41.538 0V10.506h9.484v18.427Zm-31.74 0V7.155h-16.324V.037h42.133v7.118h-16.324v21.778Zm-115.578 0V7.155H39.153V.037h42.133v7.118h-16.32v21.778Zm-29.625 0c4.4-11-25.857-.212-25.857-16.3C0 4.015 9.78 0 19.634 0 25.2 0 30.768 1.239 34.91 4.308l-6.925 5.727c-2.029-2.242-5.643-3.3-9.327-3.3-4.363 0-8.726 1.527-8.726 5.363 0 8.065 25.161-1.779 25.161 16.833ZM202.8 7.148V.037h9.484v7.111Z" transform="translate(-22698.023 -20643.004)" fill="#080d12"/></g></svg>